<?xml version="1.0" encoding="UTF-8"?><svg id="Layer_1" xmlns="http://www.w3.org/2000/svg" viewBox="0 0 1549.72 221.36"><defs><style>.cls-1{fill:#fff;}</style></defs><path class="cls-1" d="M109.97,221.36c-8.87-1.31-17.9-1.94-26.57-4.04C32.8,205.1-2.3,157.57,.12,105.04,2.52,52.84,42.35,8.74,93.86,1.27c69.67-10.11,130.1,44.54,126.99,114.84-2.44,55.28-47.85,101.3-103,104.42-2.3,.13-4.59,.54-6.89,.83h-1Zm4.66-183.39V182.97c4.06-.57,7.57-1.07,11.07-1.56V39.25c-3.78-.44-7.34-.85-11.07-1.28Zm-11.96,144.21V38.61c-10.63,0-11,.37-11,10.32,0,41.14,0,82.29,0,123.43q0,9.22,9.21,9.97c.49,.04,.99-.08,1.79-.15ZM136.07,42.35V178.41c3.15-1.45,6-2.39,8.4-4,1.38-.93,2.86-2.95,2.86-4.49,.16-39.62,.14-79.23,.05-118.85,0-1.42-.77-3.45-1.85-4.14-2.74-1.75-5.86-2.9-9.46-4.58Zm19.36,11.28v113.46c6.51-4.81,11.18-9.05,10.94-17.97-.69-25.64-.72-51.33,.01-76.97,.26-9.06-4.3-13.57-10.95-18.52Zm-76.87,121.43V45.67q-8.59,3.27-8.58,11.33c0,35.63,0,71.26,0,106.89,0,8.04,.06,8.11,8.58,11.17Zm-24.85-109.29c-23.67,28.2-17.9,71.09,0,88.27V65.77Zm118.7,7.55v74.42c14.12-21.27,14.03-55.48,0-74.42Z"/><path class="cls-1" d="M1402.45,110.33c.07,60.89-49.16,110.23-110.26,110.5-60.81,.27-110.39-49.11-110.58-110.11C1181.43,49.53,1230.91-.08,1292.05,0c61,.08,110.33,49.37,110.4,110.33Zm-97.42-71.5c-3.99-.39-7.29-.59-10.55-1.07-4.59-.68-6.32,.62-6.29,5.75,.22,42.96,.12,85.92,.12,128.89,0,11.24-.02,10.97,11.24,10.3,4.7-.28,5.58-2.11,5.57-6.39-.14-43.96-.09-87.92-.09-131.89v-5.59Zm-59.14,15.33c-18.14,16.17-27.03,35.26-26.4,58.35,.59,21.46,9.41,39.18,26.4,54.02V54.16Zm29.67,127.14V40.52c-10.42,.01-13.35,2.72-13.35,12.14,0,1.16,0,2.33,0,3.49,0,38.61-.03,77.22,.09,115.82,0,1.85,.77,4.64,2.07,5.35,3.27,1.77,7.04,2.59,11.2,3.98Zm64.37-16.77c36.54-31.84,28.59-86.86,0-107.48v107.48Zm-23.51,14.39c3.94-1.83,7.49-3.15,10.64-5.11,1.36-.85,2.66-3.03,2.67-4.61,.15-39.28,.13-78.55,.05-117.83,0-1.29-.63-3.2-1.58-3.75-3.64-2.11-7.54-3.77-11.78-5.82V178.93Z"/><path class="cls-1" d="M771.99,108.66c0,1.62,0,3.24,0,4.87,.04,22.66,.08,45.31,.11,67.97,0,6.2-4.28,10.59-10.36,10.61-8.5,.03-16.99,.02-25.49,0-5.53-.02-10.17-4.4-10.18-9.8-.03-45.81-.03-91.63,0-137.44,0-5.21,4.54-9.5,9.88-9.51,12.16-.03,24.32,.1,36.48-.08,3.08-.05,4.76,.96,6.26,3.63,9.85,17.58,19.86,35.06,29.83,52.58,.89,1.57,1.82,3.11,3.14,5.34,1.89-3.26,3.47-5.95,5.01-8.66,9.18-16.23,18.42-32.44,27.47-48.74,1.64-2.96,3.46-4.23,6.98-4.16,12.16,.24,24.32,.07,36.48,.11,5.17,.02,9.82,4.52,9.83,9.63,.03,45.81,.03,91.63,0,137.44,0,5.01-4.79,9.64-9.88,9.67-8.66,.05-17.33,.03-25.99,0-5.82-.02-10.2-4.39-10.21-10.27-.03-22.66-.01-45.31-.01-67.97,0-1.76,0-3.51,0-5.27-.39-.11-.77-.21-1.16-.32-3.04,5.43-6.09,10.85-9.12,16.29-3.4,6.11-6.6,12.35-10.3,18.27-.99,1.58-3.47,3.07-5.32,3.14-9.15,.32-18.32,.02-27.48,.21-3.07,.06-4.79-.92-6.23-3.67-5.27-10.02-10.79-19.91-16.24-29.84-.79-1.44-1.65-2.84-2.48-4.26-.35,.08-.69,.16-1.04,.25Z"/><path class="cls-1" d="M1520.39,140.65c9.96,14.76,19.72,29.23,29.33,43.47-3.58,6.04-8.07,8.62-14.99,8.16-9.79-.65-19.66-.33-29.49-.08-3.68,.1-5.65-1.22-7.49-4.32-6.71-11.32-13.84-22.39-20.54-33.72-1.79-3.02-3.81-4.08-7.19-3.9-4.79,.25-9.6,.06-15.07,.06,0,10.2,0,19.97,0,29.74,0,8.51-3.48,12.04-11.86,12.04-8,0-16,.03-24,0-5.91-.03-10.18-4.33-10.19-10.25-.01-45.33,0-90.66,0-136,0-6.22,4.25-10.5,10.44-10.5,20.67-.01,41.33-.06,62,.03,11.07,.05,21.93,1.56,32.23,5.88,17.17,7.2,27.9,19.79,30.6,38.33,2.96,20.33,.1,39.29-15.63,54.36-2.38,2.28-5.12,4.2-8.17,6.69Zm-65.26-28.9c.87,.25,1.33,.5,1.79,.5,7.48,.04,14.96,.23,22.43-.03,3.6-.12,7.33-.64,10.73-1.78,7.83-2.63,11.21-8.91,10.94-19.16-.23-8.69-3.9-15.2-11.74-16.35-11.18-1.64-22.61-1.51-34.16-2.15v38.96Z"/><path class="cls-1" d="M522.24,89.39c0,13.83,.65,27.69-.13,41.47-2.01,35.59-25.86,59.9-61.45,62.21-10.83,.7-22.14,.15-32.7-2.2-30.04-6.7-49.21-30.76-49.78-61.89-.52-28.15-.16-56.31-.14-84.47,0-4.61,4.55-9.11,9.18-9.14,9-.06,17.99-.05,26.99,0,5.62,.03,9.83,4.33,9.84,10.02,.02,25.99-.01,51.98,.04,77.97,0,2.98,.17,6.01,.66,8.95,2.35,14.11,12.92,22.14,27.9,21.38,13.58-.69,23.03-9.55,23.32-23.76,.58-27.81,.4-55.64,.3-83.46-.01-3.91,1.01-6.87,4.1-8.97,1.53-1.04,3.47-2,5.24-2.04,9.16-.2,18.33-.15,27.49-.07,4.88,.04,9.32,4.6,9.33,9.54,.04,14.83,.01,29.66,.01,44.49-.07,0-.15,0-.22,0Z"/><path class="cls-1" d="M993.66,35.35c5.5,0,11,.12,16.49-.04,5.37-.16,8.79,2.37,10.74,7.16,18.82,46.25,37.62,92.51,56.41,138.77,1.69,4.17-3.08,10.72-8.15,10.81-10.16,.18-20.39,.72-30.44-.34-3.24-.34-6.85-4.76-8.78-8.17-3.01-5.31-4.53-11.44-7.12-17.01-.69-1.48-2.98-3.13-4.55-3.15-17.32-.28-34.64-.33-51.96-.16-1.58,.02-3.87,1.68-4.57,3.16-2.67,5.72-4.79,11.7-7.17,17.56-2.47,6.08-5.59,8.16-12.06,8.17-8.49,0-16.99,.03-25.48-.01-6.89-.04-10.64-5.48-8.07-11.71,18.85-45.69,37.71-91.38,56.58-137.06,2.59-6.27,5.29-7.98,12.15-7.99,5.33,0,10.66,0,15.99,0Zm-17.41,92.02h31.85c-5.23-14.96-10.32-29.51-15.41-44.05-.36,.03-.73,.06-1.09,.09-5.06,14.5-10.13,29-15.35,43.95Z"/><path class="cls-1" d="M283.31,150.26c0,10.7,0,20.66,0,30.62,0,7.16-4.1,11.23-11.29,11.24-8.33,0-16.66,.05-24.99-.01-5.06-.04-9.77-4.72-9.77-9.79-.03-45.81-.03-91.62,0-137.43,0-4.32,4.45-9.5,8.43-9.47,24.97,.22,50.01-.44,74.89,1.21,19.78,1.31,36.07,10.56,44.69,29.75,11.4,25.37,3.25,58.49-17.79,72.95-11.39,7.83-24.35,10.5-37.87,10.9-8.48,.25-16.96,.05-26.31,.05Zm.33-76.7v38.76c6.6,0,12.88,.05,19.16-.02,2.49-.03,5.01-.11,7.45-.54,11.3-1.98,16.12-8.29,15.8-20.43-.29-10.55-5.89-16.79-17.07-17.64-8.26-.62-16.6-.12-25.33-.12Z"/><path class="cls-1" d="M596.95,33.61c15.88-.3,30.83,1.71,45.35,6.55,6.71,2.24,9.17,5.95,8.68,13.03-.46,6.64-.99,13.29-1.62,19.92-.61,6.43-5.83,9.11-12.3,7.62-11.96-2.76-24.02-5.16-36.14-7.04-4.48-.69-9.35,.08-13.85,1.07-2.17,.48-5.32,2.9-5.45,4.65-.17,2.16,1.81,5.76,3.77,6.58,8.4,3.54,17.17,6.22,25.75,9.35,8.42,3.07,17.27,5.4,25.08,9.63,30.86,16.7,31.8,57.9,2.08,76.68-11.87,7.5-25.12,10.52-38.89,11.41-19.55,1.26-38.51-1.81-56.84-8.69-5.3-1.99-8.04-6.32-7.57-11.92,.59-6.97,1.23-13.93,2.01-20.88,.58-5.16,6.81-8.66,11.61-6.87,17.35,6.46,35.08,10.5,53.76,7.86,1.31-.18,2.91-.22,3.81-.99,2-1.7,4.87-3.69,5.1-5.82,.24-2.21-1.61-5.74-3.59-6.88-4.7-2.71-9.92-4.67-15.11-6.35-6.96-2.26-14.17-3.74-21.13-6-5.04-1.64-10.05-3.62-14.73-6.08-15.08-7.92-23.69-20.12-23.55-37.62,.15-17.99,7.75-31.77,23.71-40.47,12.66-6.9,26.62-8.05,40.05-8.74Z"/><path class="cls-1" d="M1133.26,74.04c-12.62,0-24.44,.02-36.26,0-5.89-.01-10.22-4.35-10.25-10.22-.03-5.67-.01-11.33,0-17,0-8.07,3.6-11.62,11.78-11.62,23.5,0,47,0,70.49,0,6.76,0,10.82,3.97,10.82,10.59,.01,31.16,.08,62.33-.02,93.49-.1,32.26-19.98,52.8-52.24,54.2-12.22,.53-24.31-.19-36.13-3.65-5.87-1.72-8.72-5.5-8.73-11.57-.01-7.17-.01-14.33,0-21.5,.01-5.79,5.76-9.43,11.58-8.06,7.57,1.78,15.26,3.56,22.98,4.15,11.66,.88,16.2-3.78,16.25-15.47,.09-19.5,.03-39,.02-58.5,0-1.46-.18-2.92-.31-4.85Z"/></svg>