<?xml version="1.0" encoding="UTF-8"?><svg id="Lyre" xmlns="http://www.w3.org/2000/svg" viewBox="0 0 467.47 467.47"><defs><style>.cls-1{fill:#fff;}.cls-2{stroke-width:17px;}.cls-2,.cls-3,.cls-4,.cls-5,.cls-6{fill:none;stroke:#fff;stroke-miterlimit:10;}.cls-3{stroke-width:24px;}.cls-4{stroke-width:34px;}.cls-5{stroke-width:27px;}.cls-6{stroke-width:13px;}</style></defs><path id="circle" class="cls-1" d="M233.73,0C104.65,0,0,104.65,0,233.73s104.65,233.73,233.73,233.73,233.73-104.65,233.73-233.73S362.82,0,233.73,0Zm0,387.14c-84.72,0-153.4-68.68-153.4-153.4S149.01,80.33,233.73,80.33s153.4,68.68,153.4,153.4-68.68,153.4-153.4,153.4Z"/><line id="cord_01" class="cls-4" x1="130.94" y1="88.79" x2="130.94" y2="374.13"/><line id="cord_02" class="cls-5" x1="180.59" y1="66.11" x2="180.59" y2="396.81"/><line id="cord_03" class="cls-3" x1="229.18" y1="66.11" x2="229.18" y2="396.81"/><line id="cord_04" class="cls-6" x1="277.15" y1="66.11" x2="277.15" y2="396.81"/><line id="cord_05" class="cls-2" x1="320.23" y1="66.11" x2="320.23" y2="396.81"/><line id="cord_06" class="cls-6" x1="357.73" y1="66.11" x2="357.73" y2="396.81"/></svg>